<svg width="275" height="275" viewBox="0 0 275 275" fill="none" xmlns="http://www.w3.org/2000/svg">
<g clip-path="url(#clip0_1804_10369)">
<path d="M0 137.5C0 61.5608 61.5608 0 137.5 0C213.439 0 275 61.5608 275 137.5C275 213.439 213.439 275 137.5 275H25C11.1929 275 0 263.807 0 250V137.5Z" fill="white"/>
<path d="M53.8879 126.886C52.5452 128.216 50.9112 128.881 48.9859 128.881C47.0606 128.881 45.4266 128.216 44.0839 126.886C42.7539 125.531 42.0889 123.891 42.0889 121.965C42.0889 120.027 42.7539 118.393 44.0839 117.063C45.4266 115.721 47.0606 115.049 48.9859 115.049C50.9112 115.049 52.5452 115.721 53.8879 117.063C55.2306 118.393 55.9019 120.027 55.9019 121.965C55.9019 123.903 55.2306 125.544 53.8879 126.886ZM45.9269 125.1C46.7376 125.911 47.7572 126.316 48.9859 126.316C50.2146 126.316 51.2342 125.911 52.0449 125.1C52.8682 124.277 53.2799 123.232 53.2799 121.965C53.2799 120.699 52.8682 119.654 52.0449 118.83C51.2216 118.007 50.2019 117.595 48.9859 117.595C47.7699 117.595 46.7502 118.007 45.9269 118.83C45.1036 119.654 44.6919 120.699 44.6919 121.965C44.6919 123.232 45.1036 124.277 45.9269 125.1ZM56.6998 119.115H65.1168V121.471H62.1528V128.615H59.7018V121.471H56.6998V119.115ZM71.2517 123.808L75.1847 128.615H72.3347L68.8767 124.302V128.615H66.4257V119.115H68.8767V123.295L72.1447 119.115H75.0707L71.2517 123.808ZM81.9371 118.849C83.2164 118.849 84.3058 119.337 85.2051 120.312C86.1171 121.288 86.5731 122.472 86.5731 123.865C86.5731 125.284 86.1171 126.475 85.2051 127.437C84.3184 128.4 83.2291 128.881 81.9371 128.881C80.6071 128.881 79.5811 128.419 78.8591 127.494V132.415H76.4081V119.115H78.8591V120.236C79.5811 119.312 80.6071 118.849 81.9371 118.849ZM79.6001 125.803C80.0941 126.297 80.7211 126.544 81.4811 126.544C82.2411 126.544 82.8681 126.297 83.3621 125.803C83.8688 125.297 84.1221 124.651 84.1221 123.865C84.1221 123.08 83.8688 122.44 83.3621 121.946C82.8681 121.44 82.2411 121.186 81.4811 121.186C80.7211 121.186 80.0941 121.44 79.6001 121.946C79.1061 122.44 78.8591 123.08 78.8591 123.865C78.8591 124.651 79.1061 125.297 79.6001 125.803ZM96.3957 127.437C95.433 128.4 94.2423 128.881 92.8237 128.881C91.405 128.881 90.2143 128.4 89.2517 127.437C88.289 126.475 87.8077 125.284 87.8077 123.865C87.8077 122.459 88.289 121.275 89.2517 120.312C90.227 119.337 91.4177 118.849 92.8237 118.849C94.2297 118.849 95.4203 119.337 96.3957 120.312C97.371 121.288 97.8587 122.472 97.8587 123.865C97.8587 125.271 97.371 126.462 96.3957 127.437ZM90.9807 125.746C91.4747 126.24 92.089 126.487 92.8237 126.487C93.5583 126.487 94.1727 126.24 94.6667 125.746C95.1607 125.252 95.4077 124.625 95.4077 123.865C95.4077 123.105 95.1607 122.478 94.6667 121.984C94.1727 121.49 93.5583 121.243 92.8237 121.243C92.089 121.243 91.4747 121.49 90.9807 121.984C90.4993 122.491 90.2587 123.118 90.2587 123.865C90.2587 124.613 90.4993 125.24 90.9807 125.746ZM106.689 117.899H101.179V115.771H106.689V117.899ZM101.977 124.511L106.442 119.115H108.266V128.615H105.872V123.219L101.407 128.615H99.5829V119.115H101.977V124.511ZM109.581 119.115H117.998V121.471H115.034V128.615H112.583V121.471H109.581V119.115ZM128.169 124.872H121.006C121.323 126.063 122.216 126.658 123.685 126.658C124.623 126.658 125.332 126.342 125.813 125.708L127.789 126.848C126.852 128.204 125.471 128.881 123.647 128.881C122.077 128.881 120.816 128.406 119.866 127.456C118.916 126.506 118.441 125.309 118.441 123.865C118.441 122.447 118.91 121.256 119.847 120.293C120.772 119.331 121.975 118.849 123.457 118.849C124.863 118.849 126.01 119.331 126.896 120.293C127.808 121.256 128.264 122.447 128.264 123.865C128.264 124.131 128.233 124.467 128.169 124.872ZM120.968 122.972H125.813C125.674 122.352 125.389 121.877 124.958 121.547C124.54 121.218 124.04 121.053 123.457 121.053C122.799 121.053 122.254 121.224 121.823 121.566C121.393 121.896 121.108 122.364 120.968 122.972ZM143.275 119.115V126.316H144.529V131.161H142.135V128.615H136.245V131.161H133.851V126.316H135.01C135.555 125.506 135.827 124.385 135.827 122.953V119.115H143.275ZM137.632 126.316H140.881V121.319H138.221V122.953C138.221 124.321 138.025 125.442 137.632 126.316ZM146.708 119.115H154.232V128.615H151.781V121.471H149.159V124.644C149.159 127.57 147.823 128.894 145.15 128.615V126.316C145.657 126.443 146.043 126.354 146.309 126.05C146.575 125.746 146.708 125.233 146.708 124.511V119.115ZM159.626 119.115H164.072V128.615H161.678V125.651H160.823L158.638 128.615H155.807L158.182 125.366C157.574 125.113 157.086 124.714 156.719 124.169C156.364 123.625 156.187 123.029 156.187 122.383C156.187 121.509 156.504 120.743 157.137 120.084C157.758 119.438 158.587 119.115 159.626 119.115ZM161.678 121.3H159.816C159.461 121.3 159.164 121.408 158.923 121.623C158.695 121.839 158.581 122.117 158.581 122.459C158.581 122.801 158.695 123.074 158.923 123.276C159.164 123.479 159.461 123.58 159.816 123.58H161.678V121.3ZM175.578 128.881C174.146 128.881 172.949 128.4 171.987 127.437C171.037 126.475 170.562 125.284 170.562 123.865C170.562 122.447 171.037 121.256 171.987 120.293C172.949 119.331 174.146 118.849 175.578 118.849C176.502 118.849 177.345 119.071 178.105 119.514C178.865 119.958 179.441 120.553 179.834 121.3L177.725 122.535C177.535 122.143 177.243 121.832 176.851 121.604C176.471 121.376 176.04 121.262 175.559 121.262C174.824 121.262 174.216 121.509 173.735 122.003C173.253 122.485 173.013 123.105 173.013 123.865C173.013 124.6 173.253 125.221 173.735 125.727C174.216 126.209 174.824 126.449 175.559 126.449C176.053 126.449 176.49 126.342 176.87 126.126C177.262 125.898 177.554 125.588 177.744 125.195L179.872 126.411C179.454 127.171 178.858 127.773 178.086 128.216C177.326 128.66 176.49 128.881 175.578 128.881ZM190.253 124.872H183.09C183.407 126.063 184.3 126.658 185.769 126.658C186.707 126.658 187.416 126.342 187.897 125.708L189.873 126.848C188.936 128.204 187.555 128.881 185.731 128.881C184.161 128.881 182.9 128.406 181.95 127.456C181 126.506 180.525 125.309 180.525 123.865C180.525 122.447 180.994 121.256 181.931 120.293C182.856 119.331 184.059 118.849 185.541 118.849C186.947 118.849 188.094 119.331 188.98 120.293C189.892 121.256 190.348 122.447 190.348 123.865C190.348 124.131 190.317 124.467 190.253 124.872ZM183.052 122.972H187.897C187.758 122.352 187.473 121.877 187.042 121.547C186.624 121.218 186.124 121.053 185.541 121.053C184.883 121.053 184.338 121.224 183.907 121.566C183.477 121.896 183.192 122.364 183.052 122.972ZM196.488 128.881C194.994 128.881 193.784 128.4 192.859 127.437C191.947 126.475 191.491 125.252 191.491 123.77C191.491 122.162 191.732 120.914 192.213 120.027C192.682 119.141 193.651 118.336 195.12 117.614C195.158 117.589 195.228 117.551 195.329 117.5C195.443 117.45 195.557 117.399 195.671 117.348C195.798 117.298 195.918 117.247 196.032 117.196L196.83 116.797C197.02 116.709 197.223 116.595 197.438 116.455C197.755 116.265 197.989 116.069 198.141 115.866C198.293 115.664 198.458 115.36 198.635 114.954L200.649 116.113C200.485 116.886 200.111 117.488 199.528 117.918C198.933 118.349 198.072 118.78 196.944 119.21C196.159 119.514 195.576 119.825 195.196 120.141C194.816 120.458 194.544 120.844 194.379 121.3C195.076 120.578 196.026 120.217 197.229 120.217C198.293 120.217 199.231 120.604 200.041 121.376C200.865 122.136 201.276 123.15 201.276 124.416C201.276 125.721 200.833 126.791 199.946 127.627C199.072 128.463 197.92 128.881 196.488 128.881ZM196.45 122.174C195.817 122.174 195.26 122.371 194.778 122.763C194.297 123.169 194.056 123.694 194.056 124.34C194.056 125.012 194.284 125.563 194.74 125.993C195.209 126.424 195.785 126.639 196.469 126.639C197.166 126.639 197.73 126.43 198.16 126.012C198.604 125.594 198.825 125.062 198.825 124.416C198.825 123.77 198.604 123.238 198.16 122.82C197.717 122.39 197.147 122.174 196.45 122.174ZM205.567 119.115H210.013V128.615H207.619V125.651H206.764L204.579 128.615H201.748L204.123 125.366C203.515 125.113 203.028 124.714 202.66 124.169C202.306 123.625 202.128 123.029 202.128 122.383C202.128 121.509 202.445 120.743 203.078 120.084C203.699 119.438 204.529 119.115 205.567 119.115ZM207.619 121.3H205.757C205.403 121.3 205.105 121.408 204.864 121.623C204.636 121.839 204.522 122.117 204.522 122.459C204.522 122.801 204.636 123.074 204.864 123.276C205.105 123.479 205.403 123.58 205.757 123.58H207.619V121.3ZM50.9429 140.115V147.316H52.5389V152.161H50.1449V149.615H42.5829V140.115H45.0339V147.316H48.4919V140.115H50.9429ZM62.9497 145.872H55.7867C56.1034 147.063 56.9964 147.658 58.4657 147.658C59.4031 147.658 60.1124 147.342 60.5937 146.708L62.5697 147.848C61.6324 149.204 60.2517 149.881 58.4277 149.881C56.8571 149.881 55.5967 149.406 54.6467 148.456C53.6967 147.506 53.2217 146.309 53.2217 144.865C53.2217 143.447 53.6904 142.256 54.6277 141.293C55.5524 140.331 56.7557 139.849 58.2377 139.849C59.6437 139.849 60.7901 140.331 61.6767 141.293C62.5887 142.256 63.0447 143.447 63.0447 144.865C63.0447 145.131 63.0131 145.467 62.9497 145.872ZM55.7487 143.972H60.5937C60.4544 143.352 60.1694 142.877 59.7387 142.547C59.3207 142.218 58.8204 142.053 58.2377 142.053C57.5791 142.053 57.0344 142.224 56.6037 142.566C56.1731 142.896 55.8881 143.364 55.7487 143.972ZM65.0117 140.115H72.5357V149.615H70.0847V142.471H67.4627V145.644C67.4627 148.57 66.1263 149.894 63.4537 149.615V147.316C63.9603 147.443 64.3467 147.354 64.6127 147.05C64.8787 146.746 65.0117 146.233 65.0117 145.511V140.115ZM78.8417 146.499L80.9507 140.115H83.5727L80.1147 149.615C79.1521 152.288 77.4801 153.555 75.0987 153.415V151.135C75.7447 151.148 76.2514 151.028 76.6187 150.774C76.9987 150.521 77.3027 150.097 77.5307 149.501L73.6927 140.115H76.2957L78.8417 146.499ZM93.3842 139.849C94.7902 139.849 95.9808 140.337 96.9562 141.312C97.9315 142.288 98.4192 143.472 98.4192 144.865C98.4192 146.271 97.9315 147.462 96.9562 148.437C95.9935 149.4 94.8028 149.881 93.3842 149.881C92.1935 149.881 91.1548 149.52 90.2682 148.798C89.3815 148.076 88.8115 147.145 88.5582 146.005H87.1902V149.615H84.7392V140.115H87.1902V143.706H88.5772C88.8305 142.579 89.4005 141.654 90.2872 140.932C91.1865 140.21 92.2188 139.849 93.3842 139.849ZM91.5412 146.746C92.0352 147.24 92.6495 147.487 93.3842 147.487C94.1188 147.487 94.7332 147.24 95.2272 146.746C95.7212 146.252 95.9682 145.625 95.9682 144.865C95.9682 144.105 95.7212 143.478 95.2272 142.984C94.7332 142.49 94.1188 142.243 93.3842 142.243C92.6495 142.243 92.0352 142.49 91.5412 142.984C91.0598 143.491 90.8192 144.118 90.8192 144.865C90.8192 145.613 91.0598 146.24 91.5412 146.746ZM104.89 140.115H113.573V149.615H111.122V142.414H107.341V149.615H104.89V140.115ZM116.445 140.115H123.969V149.615H121.518V142.471H118.896V145.644C118.896 148.57 117.56 149.894 114.887 149.615V147.316C115.394 147.443 115.78 147.354 116.046 147.05C116.312 146.746 116.445 146.233 116.445 145.511V140.115ZM134.284 148.437C133.322 149.4 132.131 149.881 130.712 149.881C129.294 149.881 128.103 149.4 127.14 148.437C126.178 147.475 125.696 146.284 125.696 144.865C125.696 143.459 126.178 142.275 127.14 141.312C128.116 140.337 129.306 139.849 130.712 139.849C132.118 139.849 133.309 140.337 134.284 141.312C135.26 142.288 135.747 143.472 135.747 144.865C135.747 146.271 135.26 147.462 134.284 148.437ZM128.869 146.746C129.363 147.24 129.978 147.487 130.712 147.487C131.447 147.487 132.061 147.24 132.555 146.746C133.049 146.252 133.296 145.625 133.296 144.865C133.296 144.105 133.049 143.478 132.555 142.984C132.061 142.49 131.447 142.243 130.712 142.243C129.978 142.243 129.363 142.49 128.869 142.984C128.388 143.491 128.147 144.118 128.147 144.865C128.147 145.613 128.388 146.24 128.869 146.746ZM148.606 147.316V140.115H151.057V149.615H137.472V140.115H139.923V147.316H143.039V140.115H145.49V147.316H148.606ZM160.519 141.236V140.115H162.97V149.615H160.519V148.494C159.784 149.419 158.752 149.881 157.422 149.881C156.155 149.881 155.066 149.4 154.154 148.437C153.254 147.462 152.805 146.271 152.805 144.865C152.805 143.472 153.254 142.288 154.154 141.312C155.066 140.337 156.155 139.849 157.422 139.849C158.752 139.849 159.784 140.312 160.519 141.236ZM155.997 146.803C156.491 147.297 157.118 147.544 157.878 147.544C158.638 147.544 159.265 147.297 159.759 146.803C160.265 146.297 160.519 145.651 160.519 144.865C160.519 144.08 160.265 143.44 159.759 142.946C159.265 142.44 158.638 142.186 157.878 142.186C157.118 142.186 156.491 142.44 155.997 142.946C155.503 143.44 155.256 144.08 155.256 144.865C155.256 145.651 155.503 146.297 155.997 146.803ZM173.742 140.115V147.316H174.996V152.161H172.602V149.615H166.712V152.161H164.318V147.316H165.477C166.022 146.506 166.294 145.385 166.294 143.953V140.115H173.742ZM168.099 147.316H171.348V142.319H168.688V143.953C168.688 145.321 168.492 146.442 168.099 147.316ZM181.374 144.808L185.307 149.615H182.457L178.999 145.302V149.615H176.548V140.115H178.999V144.295L182.267 140.115H185.193L181.374 144.808ZM190.522 146.499L192.631 140.115H195.253L191.795 149.615C190.833 152.288 189.161 153.555 186.779 153.415V151.135C187.425 151.148 187.932 151.028 188.299 150.774C188.679 150.521 188.983 150.097 189.211 149.501L185.373 140.115H187.976L190.522 146.499ZM51.1329 161.115V168.316H52.3869V173.161H49.9929V170.615H44.1029V173.161H41.7089V168.316H42.8679C43.4126 167.506 43.6849 166.385 43.6849 164.953V161.115H51.1329ZM45.4899 168.316H48.7389V163.319H46.0789V164.953C46.0789 166.321 45.8826 167.442 45.4899 168.316ZM54.5654 161.115H62.0894V170.615H59.6384V163.471H57.0164V166.644C57.0164 169.57 55.68 170.894 53.0074 170.615V168.316C53.514 168.443 53.9004 168.354 54.1664 168.05C54.4324 167.746 54.5654 167.233 54.5654 166.511V161.115ZM67.4835 161.115H71.9295V170.615H69.5355V167.651H68.6805L66.4955 170.615H63.6645L66.0395 167.366C65.4315 167.113 64.9438 166.714 64.5765 166.169C64.2218 165.625 64.0445 165.029 64.0445 164.383C64.0445 163.509 64.3611 162.743 64.9945 162.084C65.6151 161.438 66.4448 161.115 67.4835 161.115ZM69.5355 163.3H67.6735C67.3188 163.3 67.0211 163.408 66.7805 163.623C66.5525 163.839 66.4385 164.117 66.4385 164.459C66.4385 164.801 66.5525 165.074 66.7805 165.276C67.0211 165.479 67.3188 165.58 67.6735 165.58H69.5355V163.3ZM78.913 161.115H87.596V170.615H85.145V163.414H81.364V170.615H78.913V161.115ZM95.3707 160.849C96.65 160.849 97.7394 161.337 98.6387 162.312C99.5507 163.288 100.007 164.472 100.007 165.865C100.007 167.284 99.5507 168.475 98.6387 169.437C97.752 170.4 96.6627 170.881 95.3707 170.881C94.0407 170.881 93.0147 170.419 92.2927 169.494V174.415H89.8417V161.115H92.2927V162.236C93.0147 161.312 94.0407 160.849 95.3707 160.849ZM93.0337 167.803C93.5277 168.297 94.1547 168.544 94.9147 168.544C95.6747 168.544 96.3017 168.297 96.7957 167.803C97.3024 167.297 97.5557 166.651 97.5557 165.865C97.5557 165.08 97.3024 164.44 96.7957 163.946C96.3017 163.44 95.6747 163.186 94.9147 163.186C94.1547 163.186 93.5277 163.44 93.0337 163.946C92.5397 164.44 92.2927 165.08 92.2927 165.865C92.2927 166.651 92.5397 167.297 93.0337 167.803ZM109.829 169.437C108.867 170.4 107.676 170.881 106.257 170.881C104.839 170.881 103.648 170.4 102.685 169.437C101.723 168.475 101.241 167.284 101.241 165.865C101.241 164.459 101.723 163.275 102.685 162.312C103.661 161.337 104.851 160.849 106.257 160.849C107.663 160.849 108.854 161.337 109.829 162.312C110.805 163.288 111.292 164.472 111.292 165.865C111.292 167.271 110.805 168.462 109.829 169.437ZM104.414 167.746C104.908 168.24 105.523 168.487 106.257 168.487C106.992 168.487 107.606 168.24 108.1 167.746C108.594 167.252 108.841 166.625 108.841 165.865C108.841 165.105 108.594 164.478 108.1 163.984C107.606 163.49 106.992 163.243 106.257 163.243C105.523 163.243 104.908 163.49 104.414 163.984C103.933 164.491 103.692 165.118 103.692 165.865C103.692 166.613 103.933 167.24 104.414 167.746ZM121.195 161.115V168.316H122.449V173.161H120.055V170.615H114.165V173.161H111.771V168.316H112.93C113.475 167.506 113.747 166.385 113.747 164.953V161.115H121.195ZM115.552 168.316H118.801V163.319H116.141V164.953C116.141 166.321 115.945 167.442 115.552 168.316ZM130.85 162.236V161.115H133.301V170.615H130.85V169.494C130.115 170.419 129.083 170.881 127.753 170.881C126.486 170.881 125.397 170.4 124.485 169.437C123.585 168.462 123.136 167.271 123.136 165.865C123.136 164.472 123.585 163.288 124.485 162.312C125.397 161.337 126.486 160.849 127.753 160.849C129.083 160.849 130.115 161.312 130.85 162.236ZM126.328 167.803C126.822 168.297 127.449 168.544 128.209 168.544C128.969 168.544 129.596 168.297 130.09 167.803C130.596 167.297 130.85 166.651 130.85 165.865C130.85 165.08 130.596 164.44 130.09 163.946C129.596 163.44 128.969 163.186 128.209 163.186C127.449 163.186 126.822 163.44 126.328 163.946C125.834 164.44 125.587 165.08 125.587 165.865C125.587 166.651 125.834 167.297 126.328 167.803ZM144.909 165.808L148.348 170.615H145.593L142.686 166.359V170.615H140.292V166.359L137.385 170.615H134.649L138.069 165.808L134.839 161.115H137.575L140.292 165.238V161.115H142.686V165.238L145.403 161.115H148.158L144.909 165.808ZM158.172 166.872H151.009C151.326 168.063 152.219 168.658 153.688 168.658C154.626 168.658 155.335 168.342 155.816 167.708L157.792 168.848C156.855 170.204 155.474 170.881 153.65 170.881C152.08 170.881 150.819 170.406 149.869 169.456C148.919 168.506 148.444 167.309 148.444 165.865C148.444 164.447 148.913 163.256 149.85 162.293C150.775 161.331 151.978 160.849 153.46 160.849C154.866 160.849 156.013 161.331 156.899 162.293C157.811 163.256 158.267 164.447 158.267 165.865C158.267 166.131 158.236 166.467 158.172 166.872ZM150.971 164.972H155.816C155.677 164.352 155.392 163.877 154.961 163.547C154.543 163.218 154.043 163.053 153.46 163.053C152.802 163.053 152.257 163.224 151.826 163.566C151.396 163.896 151.111 164.364 150.971 164.972Z" fill="#787993"/>
<g clip-path="url(#clip1_1804_10369)">
<rect x="42.4619" y="195.538" width="159.615" height="37.7692" rx="4" stroke="#41D481" stroke-width="2"/>
<path d="M65.488 211.663L69.792 217.423H67.248L63.248 212.175V217.423H61.04V206.223H63.248V211.167L67.088 206.223H69.632L65.488 211.663ZM76.149 210.367V209.423H78.213V217.423H76.149V216.479C75.5303 217.258 74.661 217.647 73.541 217.647C72.4743 217.647 71.557 217.242 70.789 216.431C70.0317 215.61 69.653 214.607 69.653 213.423C69.653 212.25 70.0317 211.252 70.789 210.431C71.557 209.61 72.4743 209.199 73.541 209.199C74.661 209.199 75.5303 209.588 76.149 210.367ZM72.341 215.055C72.757 215.471 73.285 215.679 73.925 215.679C74.565 215.679 75.093 215.471 75.509 215.055C75.9357 214.628 76.149 214.084 76.149 213.423C76.149 212.762 75.9357 212.223 75.509 211.807C75.093 211.38 74.565 211.167 73.925 211.167C73.285 211.167 72.757 211.38 72.341 211.807C71.925 212.223 71.717 212.762 71.717 213.423C71.717 214.084 71.925 214.628 72.341 215.055ZM84.1486 213.375L87.4606 217.423H85.0606L82.1486 213.791V217.423H80.0846V209.423H82.1486V212.943L84.9006 209.423H87.3646L84.1486 213.375ZM95.4349 209.199C96.6402 209.199 97.6375 209.594 98.4269 210.383C99.2162 211.172 99.6109 212.186 99.6109 213.423C99.6109 214.671 99.2162 215.69 98.4269 216.479C97.6482 217.258 96.6455 217.647 95.4189 217.647C94.5975 217.647 93.8615 217.46 93.2109 217.087C92.5602 216.714 92.0749 216.207 91.7549 215.567L93.4989 214.559C93.6375 214.89 93.8775 215.156 94.2189 215.359C94.5709 215.562 94.9815 215.663 95.4509 215.663C95.8882 215.663 96.2829 215.546 96.6349 215.311C96.9869 215.066 97.2429 214.746 97.4029 214.351H94.6829V212.495H97.4029C97.2429 212.1 96.9869 211.786 96.6349 211.551C96.2829 211.306 95.8882 211.183 95.4509 211.183C94.5122 211.183 93.8669 211.546 93.5149 212.271L91.7709 211.263C92.1229 210.623 92.6189 210.122 93.2589 209.759C93.9095 209.386 94.6349 209.199 95.4349 209.199ZM99.9881 209.423H107.076V211.407H104.58V217.423H102.516V211.407H99.9881V209.423ZM114.682 216.431C113.871 217.242 112.869 217.647 111.674 217.647C110.479 217.647 109.477 217.242 108.666 216.431C107.855 215.62 107.45 214.618 107.45 213.423C107.45 212.239 107.855 211.242 108.666 210.431C109.487 209.61 110.49 209.199 111.674 209.199C112.858 209.199 113.861 209.61 114.682 210.431C115.503 211.252 115.914 212.25 115.914 213.423C115.914 214.607 115.503 215.61 114.682 216.431ZM110.122 215.007C110.538 215.423 111.055 215.631 111.674 215.631C112.293 215.631 112.81 215.423 113.226 215.007C113.642 214.591 113.85 214.063 113.85 213.423C113.85 212.783 113.642 212.255 113.226 211.839C112.81 211.423 112.293 211.215 111.674 211.215C111.055 211.215 110.538 211.423 110.122 211.839C109.717 212.266 109.514 212.794 109.514 213.423C109.514 214.052 109.717 214.58 110.122 215.007ZM128.566 209.423V215.487H129.622V219.567H127.606V217.423H122.646V219.567H120.63V215.487H121.606C122.065 214.804 122.294 213.86 122.294 212.655V209.423H128.566ZM123.814 215.487H126.55V211.279H124.31V212.655C124.31 213.807 124.145 214.751 123.814 215.487ZM138.392 214.271H132.36C132.627 215.274 133.379 215.775 134.616 215.775C135.405 215.775 136.003 215.508 136.408 214.975L138.072 215.935C137.283 217.076 136.12 217.647 134.584 217.647C133.261 217.647 132.2 217.247 131.4 216.447C130.6 215.647 130.2 214.639 130.2 213.423C130.2 212.228 130.595 211.226 131.384 210.415C132.163 209.604 133.176 209.199 134.424 209.199C135.608 209.199 136.573 209.604 137.32 210.415C138.088 211.226 138.472 212.228 138.472 213.423C138.472 213.647 138.445 213.93 138.392 214.271ZM132.328 212.671H136.408C136.291 212.148 136.051 211.748 135.688 211.471C135.336 211.194 134.915 211.055 134.424 211.055C133.869 211.055 133.411 211.199 133.048 211.487C132.685 211.764 132.445 212.159 132.328 212.671ZM140.128 209.423H146.464V217.423H144.4V211.407H142.192V214.079C142.192 216.543 141.067 217.658 138.816 217.423V215.487C139.243 215.594 139.568 215.519 139.792 215.263C140.016 215.007 140.128 214.575 140.128 213.967V209.423ZM154.415 210.367V209.423H156.479V217.423H154.415V216.479C153.796 217.258 152.927 217.647 151.807 217.647C150.74 217.647 149.823 217.242 149.055 216.431C148.297 215.61 147.919 214.607 147.919 213.423C147.919 212.25 148.297 211.252 149.055 210.431C149.823 209.61 150.74 209.199 151.807 209.199C152.927 209.199 153.796 209.588 154.415 210.367ZM150.607 215.055C151.023 215.471 151.551 215.679 152.191 215.679C152.831 215.679 153.359 215.471 153.775 215.055C154.201 214.628 154.415 214.084 154.415 213.423C154.415 212.762 154.201 212.223 153.775 211.807C153.359 211.38 152.831 211.167 152.191 211.167C151.551 211.167 151.023 211.38 150.607 211.807C150.191 212.223 149.983 212.762 149.983 213.423C149.983 214.084 150.191 214.628 150.607 215.055ZM157.566 209.423H164.654V211.407H162.158V217.423H160.094V211.407H157.566V209.423ZM167.821 211.983H169.373C170.279 211.983 171.01 212.234 171.565 212.735C172.119 213.226 172.397 213.882 172.397 214.703C172.397 215.524 172.119 216.186 171.565 216.687C171.01 217.178 170.279 217.423 169.373 217.423H165.757V209.423H167.821V211.983ZM167.821 215.599H169.389C169.677 215.599 169.911 215.519 170.093 215.359C170.285 215.188 170.381 214.97 170.381 214.703C170.381 214.436 170.285 214.218 170.093 214.047C169.911 213.876 169.677 213.791 169.389 213.791H167.821V215.599ZM178.078 213.663H175.87C175.87 213.226 176.003 212.794 176.27 212.367C176.537 211.94 176.851 211.583 177.214 211.295C178.11 210.57 178.558 209.908 178.558 209.311C178.558 208.938 178.43 208.65 178.174 208.447C177.918 208.244 177.561 208.143 177.102 208.143C176.206 208.143 175.571 208.618 175.198 209.567L173.31 208.479C173.63 207.7 174.137 207.092 174.83 206.655C175.523 206.218 176.307 205.999 177.182 205.999C178.142 205.999 178.979 206.282 179.694 206.847C180.409 207.402 180.766 208.17 180.766 209.151C180.766 209.588 180.67 210.004 180.478 210.399C180.297 210.783 180.073 211.114 179.806 211.391C179.55 211.658 179.289 211.914 179.022 212.159C178.766 212.394 178.542 212.639 178.35 212.895C178.169 213.151 178.078 213.407 178.078 213.663ZM178.334 216.271C178.334 216.644 178.201 216.964 177.934 217.231C177.667 217.498 177.347 217.631 176.974 217.631C176.601 217.631 176.281 217.498 176.014 217.231C175.747 216.964 175.614 216.644 175.614 216.271C175.614 215.898 175.747 215.578 176.014 215.311C176.281 215.044 176.601 214.911 176.974 214.911C177.347 214.911 177.667 215.044 177.934 215.311C178.201 215.578 178.334 215.898 178.334 216.271Z" fill="#41D481"/>
</g>
</g>
<path fill-rule="evenodd" clip-rule="evenodd" d="M42 103.321V79.6786C42 79.5119 42.0747 79.3571 42.2242 79.2143C42.3737 79.0714 42.5356 79 42.71 79H46.858C47.0573 79 47.2254 79.0714 47.3624 79.2143C47.4995 79.3571 47.568 79.5119 47.568 79.6786V95.1429L52.0896 90.1429C52.3886 89.8571 52.7 89.7143 53.0238 89.7143H57.2092C57.533 89.7143 57.7572 89.8333 57.8818 90.0714C58.0064 90.3095 57.969 90.5595 57.7697 90.8214L52.837 96.2857L58.816 102.929C59.0153 103.167 59.0527 103.405 58.9281 103.643C58.8036 103.881 58.5794 104 58.2555 104H53.2107C52.9865 104 52.7996 103.905 52.6502 103.714L47.568 97.5V103.321C47.568 103.488 47.4995 103.643 47.3624 103.786C47.2254 103.929 47.0573 104 46.858 104H42.71C42.5356 104 42.3737 103.929 42.2242 103.786C42.0747 103.643 42 103.488 42 103.321ZM65.9434 84.2767C65.2683 84.7589 64.4465 85 63.478 85C62.5094 85 61.6876 84.7589 61.0126 84.2767C60.3375 83.7945 60 83.2076 60 82.5157C60 81.8239 60.3375 81.2317 61.0126 80.739C61.6876 80.2463 62.5094 80 63.478 80C64.4465 80 65.2757 80.2463 65.9654 80.739C66.6551 81.2317 67 81.8239 67 82.5157C67 83.2076 66.6478 83.7945 65.9434 84.2767ZM61 104.288V90.7125C61 90.5125 61.0743 90.3438 61.223 90.2063C61.3716 90.0687 61.5541 90 61.7703 90H66.2297C66.4459 90 66.6284 90.0687 66.777 90.2063C66.9257 90.3438 67 90.5125 67 90.7125V104.288C67 104.463 66.9189 104.625 66.7568 104.775C66.5946 104.925 66.4189 105 66.2297 105H61.7703C61.5811 105 61.4054 104.925 61.2432 104.775C61.0811 104.625 61 104.463 61 104.288ZM74.7709 104.634L68.0847 90.9878C67.9661 90.7439 67.9721 90.5183 68.1025 90.311C68.2329 90.1037 68.4285 90 68.6893 90H72.6726C72.9808 90 73.1942 90.1341 73.3127 90.4024L75.4111 95.378H75.5178L77.7584 90.4024C77.8532 90.2073 77.9599 90.0915 78.0785 90.0549C78.197 90.0183 78.4104 90 78.7186 90H82.3107C82.5715 90 82.7671 90.1037 82.8975 90.311C83.0279 90.5183 83.0339 90.7439 82.9153 90.9878L76.158 104.634C76.0157 104.878 75.8142 105 75.5533 105H75.3755C75.1147 105 74.9132 104.878 74.7709 104.634ZM90.9434 84.2767C90.2683 84.7589 89.4465 85 88.478 85C87.5094 85 86.6876 84.7589 86.0126 84.2767C85.3375 83.7945 85 83.2076 85 82.5157C85 81.8239 85.3375 81.2317 86.0126 80.739C86.6876 80.2463 87.5094 80 88.478 80C89.4465 80 90.2757 80.2463 90.9654 80.739C91.6551 81.2317 92 81.8239 92 82.5157C92 83.2076 91.6478 83.7945 90.9434 84.2767ZM86 104.288V90.7125C86 90.5125 86.0743 90.3438 86.223 90.2063C86.3716 90.0687 86.5541 90 86.7703 90H91.2297C91.4459 90 91.6284 90.0687 91.777 90.2063C91.9257 90.3438 92 90.5125 92 90.7125V104.288C92 104.463 91.9189 104.625 91.7568 104.775C91.5946 104.925 91.4189 105 91.2297 105H86.7703C86.5811 105 86.4054 104.925 86.2432 104.775C86.0811 104.625 86 104.463 86 104.288Z" fill="#41D481"/>
<defs>
<clipPath id="clip0_1804_10369">
<rect width="275" height="275" fill="white"/>
</clipPath>
<clipPath id="clip1_1804_10369">
<rect width="162" height="40" fill="white" transform="translate(41.4619 194.538)"/>
</clipPath>
</defs>
</svg>
